inDegrees=no
num_controls=7
num_derivatives=13
num_iterations=125
num_multipliers=7
num_parameters=0
num_slacks=7
num_states=26
objective=0.476968
objective_accelerations=0.044697
objective_balance=0.003626
objective_effort=0.040619
objective_height=0.382370
objective_ligament=0.005656
solver_duration=1762.859559
status=Solve_Succeeded
success=true
DataType=double
version=3
OpenSimVersion=4.5
endheader
time	/jointset/ground_pelvis/pelvis_tilt/value	/jointset/ground_pelvis/pelvis_tx/value	/jointset/ground_pelvis/pelvis_ty/value	/jointset/hip_l/hip_flexion_l/value	/jointset/hip_l/hip_adduction_l/value	/jointset/hip_l/hip_rotation_l/value	/jointset/back/lumbar_extension/value	/jointset/patellofemoral_l/patellar_flexion_l/value	/jointset/knee_l/knee_flexion_l/value	/jointset/knee_l/knee_adduction_l/value	/jointset/knee_l/knee_rotation_l/value	/jointset/ankle_l/ankle_angle_l/value	/jointset/subtalar_l/subtalar_angle_l/value	/jointset/ground_pelvis/pelvis_tilt/speed	/jointset/ground_pelvis/pelvis_tx/speed	/jointset/ground_pelvis/pelvis_ty/speed	/jointset/hip_l/hip_flexion_l/speed	/jointset/hip_l/hip_adduction_l/speed	/jointset/hip_l/hip_rotation_l/speed	/jointset/back/lumbar_extension/speed	/jointset/patellofemoral_l/patellar_flexion_l/speed	/jointset/knee_l/knee_flexion_l/speed	/jointset/knee_l/knee_adduction_l/speed	/jointset/knee_l/knee_rotation_l/speed	/jointset/ankle_l/ankle_angle_l/speed	/jointset/subtalar_l/subtalar_angle_l/speed	/forceset/tau_hip_flexion_l	/forceset/tau_hip_adduction_l	/forceset/tau_hip_rotation_l	/forceset/tau_knee_flexion_l	/forceset/tau_ankle_angle_l	/forceset/tau_subtalar_angle_l	/forceset/tau_lumbar_extension	lambda_cid13_p0	lambda_cid13_p1	lambda_cid13_p2	lambda_cid13_p3	lambda_cid13_p4	lambda_cid13_p5	lambda_cid14_p0	/jointset/ground_pelvis/pelvis_tilt/accel	/jointset/ground_pelvis/pelvis_tx/accel	/jointset/ground_pelvis/pelvis_ty/accel	/jointset/hip_l/hip_flexion_l/accel	/jointset/hip_l/hip_adduction_l/accel	/jointset/hip_l/hip_rotation_l/accel	/jointset/back/lumbar_extension/accel	/jointset/patellofemoral_l/patellar_flexion_l/accel	/jointset/knee_l/knee_flexion_l/accel	/jointset/knee_l/knee_adduction_l/accel	/jointset/knee_l/knee_rotation_l/accel	/jointset/ankle_l/ankle_angle_l/accel	/jointset/subtalar_l/subtalar_angle_l/accel	gamma_cid13_p0	gamma_cid13_p1	gamma_cid13_p2	gamma_cid13_p3	gamma_cid13_p4	gamma_cid13_p5	gamma_cid14_p0
1	-0.1069979572405498	-0.0582137273035952	0.6797782001303613	1.331415170330344	-0.3274924506551903	0.07294267771660837	-0.9599310780153172	1.40852143952076	1.408521439520748	-0.06197319429068681	-0.1745278532025485	0.2827807313460349	0.06723727381917158	0.105523899749827	0.02608552019526742	0.07006538727844037	-0.3009333762317267	-0.007668867835085912	-0.06353100303501978	-0.0002133815949994027	-0.1582176140974462	-0.1582176140974509	-0.003012654005547391	-3.368212127330057e-05	0.02855378491622542	0.003547688451972788	-0.3712093518464378	0.02130803137552515	0.001509730581502252	-0.3809982984914694	0.04007816210749476	0.02139773628776863	0.4247592093300103	-38.63416316208861	-1.009513953911167	-2.028381908007667	14.11791481044945	-800.3124001487006	-65.31756617403504	-0.04143725972835072	0.7807557749718234	-0.02288019791352247	1.55430735158155	-4.942530342059068	-0.124893105933454	-1.656178624942931	0.01845863394125106	-5.036598137755375	-5.036598137755425	-0.3700511676291767	-0.0111416974373241	-1.232739758276645	-0.6872073462064532	-7.438515158012782e-09	2.237647636499139e-08	6.064739858591851e-08	4.148180151832895e-09	-2.130366187484481e-08	1.278071079983623e-07	-1.630482540689049e-08
1.01	-0.1059043548736063	-0.05795393089410138	0.6805562633326409	1.328160048816372	-0.3275746441366312	0.0722237999953089	-0.9599309992608034	1.406688009399208	1.406688009399217	-0.06201991660516924	-0.1745278292599184	0.2830047790938727	0.06723945567534574	0.1131637890038455	0.02588300633979859	0.08552646581476986	-0.3500190144470142	-0.008760891131481508	-0.08023344949391929	0.0003139128899577475	-0.2084405907994546	-0.2084405907994499	-0.006326360205085948	3.494683721515004e-05	0.0162465646397186	-0.003103682005533795	-0.3706153141751334	0.02150621489527675	0.001430600346795418	-0.3805761288232383	0.03981608797750204	0.02155283100019126	0.4246380030673768	-38.67733242035887	-1.085598577885535	-1.997649797573816	13.94189003677547	-799.9460336046152	-65.36726884223697	-0.04146945132383933	0.750685627323235	-0.0175482099777599	1.538884648221199	-4.880796605902493	-0.1000235746098929	-1.675631145514049	0.08258190906371905	-5.010969942314086	-5.010969942312691	-0.3112240451998827	0.01535876036603432	-1.231093067456049	-0.6529694692788174	-1.399209587453691e-08	1.477347009381617e-08	8.967617244755588e-08	1.030768027693702e-08	-2.670549906478188e-08	1.485616251332975e-07	-2.28443822927833e-08
1.02	-0.1047353375887785	-0.05769588186928522	0.6814883126289969	1.324416227711332	-0.3276674911776555	0.07133822711158487	-0.9599231041504471	1.404353185009458	1.40435318500948	-0.06209961472146944	-0.1745272203141265	0.2831054786579219	0.06717535031219393	0.1206068833261158	0.02573604325973308	0.1008626060936454	-0.3986732944478503	-0.009799579752570892	-0.09687003551883934	0.001349889506547622	-0.2584964677370842	-0.258496467737071	-0.009607814367972228	8.331851066750477e-05	0.003884148158475129	-0.00970975541328385	-0.3700212765037841	0.02170439841503433	0.001351470112119522	-0.3801539591550018	0.03955401384750386	0.02170792571261938	0.4245167968047818	-38.73186697041942	-1.158656387960896	-1.968584660494775	13.82528885034588	-799.7251948803095	-65.3933100677919	-0.04150277897422316	0.7413967886221865	-0.01177004283287064	1.529319700090753	-4.856258699168776	-0.1142261708722092	-1.643006538147033	0.1201950602676098	-5.003178184879598	-5.003178184879816	-0.3636007602987227	-0.01519315444454562	-1.243778999223997	-0.6781479362551566	-2.214997316163742e-08	6.735660054460995e-09	1.161325876112822e-07	1.974305298484802e-08	-3.487782476474695e-08	1.683399960034171e-07	-2.893690840095758e-08
1.03	-0.1034924308980427	-0.05743874850745028	0.6825732160257748	1.320187082573166	-0.3277704580139141	0.07028666410352426	-0.9599014238890758	1.401518644830857	1.401518644830877	-0.06221200195974009	-0.1745261904073383	0.2830828030081105	0.06704566044888674	0.1279878890991612	0.02572783543507152	0.1161094515065032	-0.4471812592653036	-0.01078742704410354	-0.1134314125944389	0.003157595243870401	-0.3083841910553056	-0.3083841910553121	-0.01286752848616955	0.0001174392700423847	-0.008376159098801001	-0.01619926449520546	-0.3709286566569803	0.02204834654802049	0.001231504322726159	-0.37919906127505	0.03912197700035691	0.02198073837476984	0.4260810020547265	-38.86951465641544	-1.284504415365939	-1.912578561773817	13.26508384683423	-800.4058841981602	-65.4193728840433	-0.04153809499818037	0.7384651750014358	0.01024069659045295	1.521065033164371	-4.851898071490371	-0.09012255046405956	-1.661058117198304	0.2367732022712872	-4.977455824227098	-4.977455824229948	-0.3068593449258735	0.01196476170137276	-1.210690718609418	-0.6300258374131871	-3.03242208219071e-08	-1.306586758038875e-09	1.425627542168664e-07	2.921185296401216e-08	-4.307842075563069e-08	1.88108406197365e-07	-3.502487297058371e-08
1.04	-0.1021753116088998	-0.0571805798540875	0.6838103274909383	1.315472091247148	-0.3278831150315177	0.06906981635971626	-0.9598565235959846	1.398186050135286	1.398186050135296	-0.06235692686066713	-0.1745249692788394	0.2829388174598005	0.06685194080611012	0.1354494030064279	0.0259431015653002	0.1313042197706624	-0.4958425320210221	-0.01173761602245051	-0.1299269826673105	0.005993895853463842	-0.3581073711308733	-0.358107371130898	-0.01611534689819196	0.0001215628523312358	-0.02037783154127834	-0.02251571130722888	-0.3718360368101326	0.02239229468101326	0.001111538533365054	-0.378244163395091	0.03868994015320604	0.0222535510369273	0.4276452073047092	-39.01871291127869	-1.407251706713385	-1.858298610016833	12.76176152300845	-801.2360814542051	-65.42217523209169	-0.04157426306251463	0.7574984154664652	0.0329247481451549	1.518904270351019	-4.886920286821827	-0.1066945082350719	-1.629845137601429	0.3259140347217993	-4.97026953634885	-4.970269536348782	-0.3612216190637402	-0.02119258986175063	-1.192052036264271	-0.6435354822755284	-3.452471059246235e-08	-1.34359358559946e-08	1.689968459365315e-07	3.01585799630373e-08	-4.945213238554394e-08	1.933632682663165e-07	-4.015411399250743e-08
1.05	-0.1007836693211379	-0.05691923342102732	0.6851990214431705	1.310270448304534	-0.3280050297915355	0.06768836406587249	-0.9597781565521609	1.394356899811585	1.394356899811588	-0.06253429465004819	-0.1745238364844983	0.2826757126276636	0.06659583413950954	0.1428427861953085	0.02635427114971781	0.1464154670261822	-0.5444388614580453	-0.01263206201231805	-0.146352813508824	0.009847722488825403	-0.4077099223255991	-0.4077099223256062	-0.01935433284305501	0.0001041230650881153	-0.03223891526683902	-0.02868338674089823	-0.3717747531268842	0.0227259910565676	0.0009676784465583498	-0.3774346340273673	0.03873823334212439	0.02252373761586803	0.4283316168282761	-38.97826463127845	-1.561175720769073	-1.800063000712495	12.26708795058567	-801.4169081285658	-65.47614621116077	-0.04163439630766801	0.7248148807680249	0.04943215362317712	1.504358188135496	-4.838914756989072	-0.0788483080635726	-1.647389669231725	0.4403484146681937	-4.953323116284406	-4.953323116281863	-0.3046797000998716	0.007893464219352412	-1.182506424397544	-0.6000670007175035	-3.860102042896406e-08	-2.56930069003708e-08	1.954310603160116e-07	3.083899218143314e-08	-5.576875387917687e-08	1.981645819563618e-07	-4.525339490356545e-08
1.06	-0.09931918187944817	-0.05665293147411655	0.686738252514955	1.304584256970579	-0.3281354947441897	0.06614296594124724	-0.9596562049546378	1.390032108934886	1.390032108934884	-0.06274394082246378	-0.1745228954605509	0.2822941229815322	0.06627871403321159	0.1500184337909443	0.02693420433541731	0.1614116436810681	-0.5927522102889282	-0.01344765455022823	-0.1627161488225504	0.01471080659318432	-0.457235481730323	-0.4572354817303126	-0.02257102350400889	8.320877284207935e-05	-0.04407479434022386	-0.03471839924676297	-0.3717134694436445	0.02305968743212292	0.0008238183597679913	-0.3766251046596402	0.03878652653104703	0.02279392419481206	0.4290180263518349	-38.94949765839596	-1.711980141557128	-1.743551957008037	11.8264971949984	-801.7502703958085	-65.50829941772304	-0.04169375217194327	0.7139512968175722	0.06667746840150134	1.495890150224224	-4.830324165593784	-0.09092381784359221	-1.617346032044021	0.5277655285213121	-4.954871178348481	-4.954871178348421	-0.3567625622819067	-0.02188749086232607	-1.187011105829153	-0.6170028967146183	-4.300637475276901e-08	-3.708056032130712e-08	2.190728611556139e-07	3.18404017615461e-08	-6.063414542745611e-08	2.062676396642444e-07	-5.053600993899174e-08
1.07	-0.0977840258290907	-0.05637994410048133	0.6884267713258567	1.298416545388731	-0.3282736855146209	0.06443438862536953	-0.9594804082968634	1.385212681942531	1.385212681942533	-0.06298566103575264	-0.174522161536296	0.2817943572371772	0.0659019896493355	0.1569751553277572	0.02769566083130998	0.1762630702330819	-0.6407221577911729	-0.01417352183047047	-0.1789801360330464	0.02063547754027021	-0.5066141612542061	-0.5066141612542352	-0.02576584412956265	6.428200976279365e-05	-0.05586836467479112	-0.04059572056506467	-0.3715091617254608	0.02339816369605771	0.0006439813620762087	-0.3754029254735526	0.03884150420382142	0.02316109393989708	0.4296080421207297	-38.88279878065866	-1.925328246298175	-1.661326913119863	11.26566727001094	-801.670258274652	-65.59010675363437	-0.04176338227888027	0.6808855380532373	0.08574489220424401	1.475398515552579	-4.770143516750257	-0.06089673208850205	-1.628094527375623	0.6528607647011565	-4.923991775898704	-4.923991775904712	-0.2997960647169676	0.008264209099878777	-1.174035439616706	-0.5685038396206894	-4.742923144291988e-08	-4.842186280482643e-08	2.425661293601164e-07	3.285888566940997e-08	-6.542234389353568e-08	2.14546322053927e-07	-5.582837678954401e-08
1.08	-0.09618043197217294	-0.05609836913148313	0.6902629303238517	1.291771171637018	-0.3284186306676468	0.06256373754501612	-0.959239756352238	1.379900543067637	1.379900543067647	-0.06325912030570896	-0.1745215849840424	0.2811769547010075	0.0654674106342302	0.1637059951021642	0.02865172340801099	0.1909396810996376	-0.688284644261834	-0.01479853106967452	-0.1951309017164683	0.02768186396331584	-0.5557778582377084	-0.5557778582377776	-0.02891883483610995	5.173437190739015e-05	-0.06760215270320795	-0.0462893254926771	-0.3713048540072851	0.02373663995999355	0.0004641443643881315	-0.3741807462874629	0.03889648187659951	0.02352826368498542	0.4301980578896168	-38.82804035744431	-2.135419441439693	-1.580953351699642	10.75732172917844	-801.7464519768579	-65.6516317102531	-0.04183089232461951	0.6687749443364853	0.1055986845631266	1.460927013132574	-4.748831959277052	-0.07075220963593844	-1.594701726629199	0.7521086237133063	-4.911874670272316	-4.911874670272381	-0.3483965784806137	-0.02061166581753587	-1.175054644599132	-0.5802596185767805	-5.16845585159885e-08	-6.040527150781726e-08	2.62956404460362e-07	3.39532982898947e-08	-7.035320855715324e-08	2.172124833806228e-07	-6.026433293123144e-08
